<svg xmlns="http://www.w3.org/2000/svg" viewBox="0 0 24 24">
    <symbol id="icon-calendar" fill="none" viewBox="0 0 24 24" stroke-width="1.5"
        stroke="currentColor">
        <path stroke-linecap="round" stroke-linejoin="round"
            d="M6.75 3v2.25M17.25 3v2.25M3 18.75V7.5a2.25 2.25 0 012.25-2.25h13.5A2.25 2.25 0 0121 7.5v11.25m-18 0A2.25 2.25 0 005.25 21h13.5A2.25 2.25 0 0021 18.75m-18 0v-7.5A2.25 2.25 0 015.25 9h13.5A2.25 2.25 0 0121 11.25v7.5m-9-6h.008v.008H12v-.008zM12 15h.008v.008H12V15zm0 2.25h.008v.008H12v-.008zM9.75 15h.008v.008H9.75V15zm0 2.25h.008v.008H9.75v-.008zM7.5 15h.008v.008H7.5V15zm0 2.25h.008v.008H7.5v-.008zm6.75-4.5h.008v.008h-.008v-.008zm0 2.25h.008v.008h-.008V15zm0 2.25h.008v.008h-.008v-.008zm2.25-4.5h.008v.008H16.5v-.008zm0 2.25h.008v.008H16.5V15z" />
    </symbol>
    <symbol id="icon-clock" fill="none" viewBox="0 0 24 24" stroke-width="1.5"
        stroke="currentColor">
        <path stroke-linecap="round" stroke-linejoin="round"
            d="M12 6v6h4.5m4.5 0a9 9 0 11-18 0 9 9 0 0118 0z" />
    </symbol>
    <symbol id="icon-audio" fill="none" viewBox="0 0 24 24" stroke-width="1.5"
        stroke="currentColor">
        <path stroke-linecap="round" stroke-linejoin="round"
            d="M12 18.75a6 6 0 006-6v-1.5m-6 7.5a6 6 0 01-6-6v-1.5m6 7.5v3.75m-3.75 0h7.5M12 15.75a3 3 0 01-3-3V4.5a3 3 0 116 0v8.25a3 3 0 01-3 3z" />
    </symbol>
    <symbol id="icon-fire" fill="none" viewBox="0 0 24 24" stroke-width="1.5"
        stroke="currentColor">
        <path stroke-linecap="round" stroke-linejoin="round"
            d="M9 14.25l6-6m4.5-3.493V21.75l-3.75-1.5-3.75 1.5-3.75-1.5-3.75 1.5V4.757c0-1.108.806-2.057 1.907-2.185a48.507 48.507 0 0111.186 0c1.1.128 1.907 1.077 1.907 2.185zM9.75 9h.008v.008H9.75V9zm.375 0a.375.375 0 11-.75 0 .375.375 0 01.75 0zm4.125 4.5h.008v.008h-.008V13.5zm.375 0a.375.375 0 11-.75 0 .375.375 0 01.75 0z" />
    </symbol>
    <symbol id="icon-check" fill="none" viewBox="0 0 24 24" stroke-width="1.5"
        stroke="currentColor">
        <path stroke-linecap="round" stroke-linejoin="round"
            d="M9 12.75L11.25 15 15 9.75M21 12c0 1.268-.63 2.39-1.593 3.068a3.745 3.745 0 01-1.043 3.296 3.745 3.745 0 01-3.296 1.043A3.745 3.745 0 0112 21c-1.268 0-2.39-.63-3.068-1.593a3.746 3.746 0 01-3.296-1.043 3.745 3.745 0 01-1.043-3.296A3.745 3.745 0 013 12c0-1.268.63-2.39 1.593-3.068a3.745 3.745 0 011.043-3.296 3.746 3.746 0 013.296-1.043A3.746 3.746 0 0112 3c1.268 0 2.39.63 3.068 1.593a3.746 3.746 0 013.296 1.043 3.746 3.746 0 011.043 3.296A3.745 3.745 0 0121 12z" />
    </symbol>
    <symbol id="icon-download" fill="none" viewBox="0 0 24 24" stroke-width="1.5"
        stroke="currentColor">
        <path stroke-linecap="round" stroke-linejoin="round"
            d="M19.5 14.25v-2.625a3.375 3.375 0 00-3.375-3.375h-1.5A1.125 1.125 0 0113.5 7.125v-1.5a3.375 3.375 0 00-3.375-3.375H8.25m.75 12l3 3m0 0l3-3m-3 3v-6m-1.5-9H5.625c-.621 0-1.125.504-1.125 1.125v17.25c0 .621.504 1.125 1.125 1.125h12.75c.621 0 1.125-.504 1.125-1.125V11.25a9 9 0 00-9-9z" />
    </symbol>
</svg>